<svg xmlns="http://www.w3.org/2000/svg" version="1.1" xmlns:xlink="http://www.w3.org/1999/xlink" xmlns:svgjs="http://svgjs.com/svgjs" width="600" height="1200" preserveAspectRatio="none" viewBox="0 0 600 1200">
    <g mask="url(&quot;#SvgjsMask1099&quot;)" fill="none">
        <rect width="600" height="1200" x="0" y="0" fill="rgba(252, 246, 222, 1)"></rect>
        <path d="M0,390.537C84.863,390.577,170.129,418.349,249.42,388.106C337.988,354.325,432.453,301.471,465.978,212.805C499.316,124.634,438.723,31.929,418.942,-60.235C400.726,-145.11,406.427,-237.599,354.397,-307.087C300.793,-378.677,217.464,-423.421,130.714,-445.172C45.959,-466.423,-40.349,-447.021,-125.5,-427.415C-215.62,-406.665,-316.467,-396.559,-378.459,-327.936C-440.755,-258.977,-459.981,-157.756,-452.802,-65.103C-446.297,18.858,-375.5,78.908,-340.985,155.723C-306.179,233.185,-319.21,339.704,-249.268,387.869C-179.416,435.971,-84.812,390.497,0,390.537" fill="#f4dd83"></path>
        <path d="M600 1727.9470000000001C703.657 1743.893 815.472 1729.2530000000002 903.056 1671.564 990.271 1614.117 1040.492 1515.3020000000001 1073.342 1416.1680000000001 1103.912 1323.915 1099.459 1226.315 1082.3 1130.656 1065.621 1037.672 1026.646 953.914 976.107 874.101 917.88 782.1469999999999 871.262 662.486 766.705 632.256 662.145 602.025 559.182 679.035 460.539 725.039 375.243 764.818 299.678 815.662 232.373 881.4490000000001 159.70499999999998 952.4780000000001 59.47000000000003 1020.105 54.81299999999999 1121.614 50.139999999999986 1223.483 154.74 1292.325 209.579 1378.3 255.709 1450.621 287.574 1529.484 351.475 1586.712 423.923 1651.594 503.877 1713.1599999999999 600 1727.9470000000001" fill="#ffffff"></path>
    </g>
    <defs>
        <mask id="SvgjsMask1099">
            <rect width="600" height="1200" fill="#ffffff"></rect>
        </mask>
    </defs>
</svg>