<svg width="986" height="320" viewBox="0 0 986 320" fill="none" xmlns="http://www.w3.org/2000/svg">
<path d="M76.5 52C76.5 49.6564 76.5 47.8461 76.5 45.3686C76.8047 45.3686 77.6121 45.3811 77.9185 45.3686C89.1379 44.9137 100.362 44.5507 111.575 43.9732C122.768 43.3968 133.961 42.9429 145.168 43.0058C155.743 43.0653 166.278 43.7864 176.696 45.6814C185.757 47.3295 194.538 49.8875 202.789 54.1092C210.323 57.9643 216.894 63.0321 222.459 69.4107C230.491 78.6178 235.776 89.2665 238.869 101.038C241.319 110.361 242.197 119.848 241.664 129.477C241.112 139.435 239.061 149.053 235.251 158.271C230.932 168.721 224.744 177.879 216.196 185.339C209.095 191.536 200.964 195.894 192.004 198.758C185.697 200.774 179.238 202.017 172.674 202.774C161.779 204.03 150.845 203.996 139.905 203.775C133.598 203.647 127.291 203.545 120.984 203.432C120.692 203.427 120.4 203.431 120.038 203.431C119.976 203.167 119.918 202.918 119.813 202.547C119.747 195.042 119.729 187.661 119.702 180.28C119.701 179.857 119.67 179.424 119.576 179.014C117.168 168.489 114.746 157.968 112.334 147.444C111.146 142.26 109.972 137.072 108.792 131.839C108.829 131.448 108.873 131.105 108.901 130.761C109.243 126.65 109.58 122.538 109.923 118.426C110.379 112.962 110.842 107.499 111.297 102.035C111.692 97.287 112.08 92.5389 112.47 87.7909C112.897 82.5927 113.322 77.3944 113.782 72.1436C113.932 70.7655 114.074 69.4416 114.155 68.1139C114.213 67.1783 114.188 66.2377 114.189 65.2368C114.282 64.1503 114.385 63.126 114.491 62.1021C114.641 60.6619 114.799 59.2225 114.94 57.7816C115.03 56.8652 115.098 55.9465 115.18 54.9718C114.792 54.945 114.505 54.9233 114.219 54.9057C110.56 54.6801 106.9 54.4612 103.241 54.2286C97.7273 53.8783 92.214 53.5187 86.7005 53.1626C83.4669 52.9538 83.5 53 76.5 52ZM177.537 157.052C182.78 154.431 186.836 150.534 189.789 145.491C192.859 140.247 194.254 134.516 194.432 128.484C194.683 119.971 192.723 111.998 188.359 104.658C186.245 101.104 183.629 97.9584 180.444 95.317C176.226 91.8188 171.347 89.6774 166.073 88.3217C159.199 86.5548 152.189 85.9101 145.132 85.8475C137.95 85.7839 130.765 85.9642 123.58 86.0337C122.417 86.045 121.253 86.0353 120.056 86.0353C120.056 110.872 120.056 135.568 120.056 160.305C120.364 160.32 120.625 160.334 120.887 160.347C126.865 160.633 132.847 160.871 138.822 161.216C147.437 161.714 156.044 162.043 164.63 160.833C169.075 160.207 173.396 159.148 177.537 157.052Z" fill="#FFAD1E"/>
<path fill-rule="evenodd" clip-rule="evenodd" d="M0.160156 179.68C0.160156 160.156 0.160156 140.633 0.223569 121.022C0.268391 120.961 0.310746 120.913 0.346832 120.871L0.347005 120.871L0.347288 120.871L0.347551 120.87L0.34758 120.87C0.409904 120.799 0.453358 120.749 0.458213 120.695L0.458214 120.695C0.450769 120.777 0.352534 120.851 0.234683 120.939L0.234666 120.939L0.22357 120.948C0.160156 118.29 0.160156 115.62 0.160156 112.875C0.47636 112.802 0.792563 112.8 1.17259 112.797L1.2068 112.797C1.14774 113.654 1.04957 114.51 0.951231 115.369L0.95122 115.369L0.951212 115.369C0.900638 115.81 0.850021 116.252 0.804658 116.695L0.804657 116.695C0.906676 115.7 1.03527 114.708 1.16758 113.687L1.16759 113.687C1.20851 113.371 1.24979 113.053 1.29075 112.731C1.45009 111.561 1.60127 110.397 1.75183 109.237L1.75186 109.237C2.05448 106.907 2.35461 104.597 2.7134 102.295C2.95932 100.718 3.20087 99.1393 3.44244 97.5608C4.31655 91.8491 5.19082 86.1363 6.27235 80.4638C7.87199 72.0739 10.3343 63.9244 14.1914 56.2543C16.4996 51.6641 19.2928 47.4073 22.7072 43.5554C28.7834 36.7007 36.0288 31.3231 43.898 26.7612C54.8943 20.3865 66.6906 15.9132 78.8508 12.3711C93.0812 8.22596 107.618 5.58406 122.34 4.06234C131.307 3.13555 140.307 2.4255 149.311 1.99696C162.239 1.38158 175.171 1.64906 188.072 2.85299C196.019 3.59462 203.92 4.64149 211.745 6.23977C222.399 8.41614 232.794 11.4277 242.777 15.7984C251.456 19.5984 259.524 24.3933 266.789 30.5018C274.465 36.9566 280.57 44.7147 285.338 53.5039C286.888 56.3613 288.255 59.3183 289.623 62.2749L289.623 62.2754L289.623 62.276L289.624 62.2765L289.624 62.2771L289.624 62.2776C290.177 63.473 290.73 64.6683 291.295 65.857C291.478 66.2421 291.614 66.6496 291.754 67.0683C291.822 67.2735 291.892 67.4814 291.968 67.6907C291.999 67.6862 292.046 67.7177 292.089 67.7924C292.043 67.8126 292.012 67.7928 291.986 67.7369C292.012 67.7955 292.045 67.8272 292.1 67.868C292.103 67.8752 292.105 67.8842 292.107 67.8943C292.11 67.9078 292.112 67.9231 292.114 67.9386L292.114 67.9395C292.117 67.9648 292.121 67.9903 292.127 68.0082C292.16 68.0042 292.206 68.037 292.248 68.1124C292.207 68.1306 292.177 68.1171 292.153 68.0743C292.178 68.1238 292.21 68.1561 292.26 68.2036C292.273 68.318 292.274 68.3845 292.269 68.5173C292.269 68.5177 292.269 68.5181 292.269 68.5185C292.421 68.901 292.579 69.2856 292.738 69.6729L292.738 69.6733C293.216 70.8382 293.705 72.0275 294.059 73.2557C295.12 76.9335 296.173 80.6204 297.014 84.3523C297.523 86.6089 297.789 88.9249 298.054 91.2323V91.2326C298.088 91.5327 298.123 91.8327 298.158 92.1323C298.401 94.2163 298.56 96.3153 298.639 98.4121C298.759 101.563 298.829 104.715 298.9 107.903L298.9 107.907L298.901 107.911L298.901 107.915L298.901 107.919C298.921 108.823 298.941 109.73 298.962 110.641C298.92 110.566 298.864 110.45 298.836 110.321C298.852 110.397 298.877 110.475 298.905 110.559C298.926 110.624 298.948 110.692 298.968 110.765C298.987 110.884 298.992 110.953 298.947 111.066C298.947 111.066 298.946 111.066 298.946 111.067C299.042 111.265 299.125 111.508 299.126 111.751C299.137 113.49 299.131 115.228 299.122 117.041C299.084 116.939 299.035 116.803 299.005 116.655C299.021 116.741 299.044 116.829 299.067 116.922L299.068 116.922L299.068 116.923C299.087 117 299.108 117.081 299.127 117.167C299.145 117.289 299.15 117.359 299.103 117.474C299.103 117.474 299.103 117.474 299.103 117.474C299.201 117.542 299.283 117.652 299.286 117.764C299.32 119.105 299.35 120.446 299.379 121.787C299.403 122.859 299.427 123.931 299.453 125.003C299.5 126.99 299.552 128.977 299.614 130.963C299.635 131.659 299.664 132.354 299.694 133.049C299.721 133.7 299.748 134.352 299.769 135.003C299.841 137.214 299.909 139.425 299.977 141.636C300.015 142.865 300.053 144.095 300.091 145.324C300.109 145.872 300.129 146.421 300.149 146.969C300.188 148.06 300.228 149.151 300.246 150.243L300.256 150.871C300.319 154.781 300.382 158.691 300.403 162.601C300.424 166.729 300.39 170.858 300.318 175.019C300.185 172.843 300.094 170.648 300.005 168.449C300.081 170.38 300.151 172.319 300.223 174.289L300.223 174.301L300.224 174.323L300.225 174.337L300.225 174.346L300.253 175.126C300.28 176.28 300.31 177.425 300.339 178.563L300.339 178.567L300.339 178.571L300.339 178.575L300.339 178.578L300.339 178.582C300.388 180.478 300.437 182.356 300.472 184.235C300.657 193.945 300.416 203.627 299.016 213.267C297.514 223.603 294.327 233.367 289.463 242.579C280.901 258.797 268.838 271.918 253.962 282.502C246.716 287.658 238.96 291.917 230.715 295.249C222.489 298.573 213.95 300.675 205.148 301.809L203.799 301.983C194.409 303.194 185.018 304.405 175.565 304.978C166.962 305.499 158.35 305.949 149.734 306.194C138.794 306.504 127.862 306.09 116.961 305.089C113.342 304.756 109.734 304.295 106.128 303.834L106.127 303.834L105.156 303.71C103.278 303.47 101.406 303.18 99.5347 302.891L99.5338 302.891L99.5329 302.891L99.5321 302.891L99.5312 302.891C98.8077 302.779 98.0843 302.667 97.3604 302.557C96.3136 302.4 95.269 302.227 94.1864 302.02L94.1862 302.02C93.9236 302.058 93.6241 302.055 93.292 301.998C93.5325 301.959 93.8 301.966 94.0979 302.007C93.8317 301.97 93.5846 301.956 93.3088 301.941L93.3079 301.941L93.2074 301.936C93.0858 301.919 93.0166 301.91 92.9363 301.842L92.9362 301.841L92.6313 301.808L92.6304 301.808C91.3643 301.67 90.0799 301.531 88.8228 301.263C85.0935 300.468 81.3884 299.572 77.8019 298.246C77.5234 298.143 77.2447 298.041 76.9654 297.939C76.0215 297.592 75.0717 297.244 74.1055 296.861L74.1508 296.862H74.152C74.434 296.866 74.7431 296.871 75.0372 296.937C74.8377 296.892 74.6275 296.872 74.4081 296.851L74.4072 296.851C74.283 296.839 74.1559 296.826 74.0261 296.809C73.9113 296.8 73.8462 296.79 73.7608 296.746L73.7605 296.746C73.7313 296.762 73.6818 296.745 73.6143 296.687C73.6372 296.669 73.6667 296.673 73.7035 296.698C73.6625 296.67 73.6212 296.657 73.5614 296.648C73.5264 296.648 73.4617 296.62 73.4413 296.587C73.4219 296.569 73.4041 296.555 73.3857 296.543C73.4024 296.554 73.4208 296.569 73.4409 296.587C73.4118 296.603 73.3624 296.585 73.2969 296.527C73.3167 296.513 73.3416 296.517 73.3727 296.534C73.3334 296.511 73.2895 296.498 73.2208 296.487C72.2995 296.091 71.3796 295.7 70.462 295.31L70.4614 295.31L70.461 295.31C67.6599 294.119 64.8803 292.937 62.1468 291.656C53.969 287.824 46.4346 282.988 40.0386 276.56C30.4782 266.951 23.0621 255.816 17.2685 243.59C9.58083 227.366 4.94011 210.227 2.23943 192.527C1.85189 189.987 1.53134 187.437 1.21077 184.887C1.01649 183.341 0.82221 181.796 0.613011 180.252C0.593823 180.111 0.462828 179.984 0.331835 179.858C0.270847 179.799 0.209859 179.74 0.160156 179.68ZM76.6694 53.0836L76.6675 53.1658C76.6641 53.3111 76.6606 53.4564 76.6606 53.6017C76.6601 122.074 76.6601 190.547 76.6601 259.019V265.151L76.6601 265.966H119.697L119.697 265.824C119.697 265.698 119.697 265.584 119.697 265.469C119.681 261.2 119.665 256.93 119.65 252.66C119.612 242.587 119.575 232.513 119.54 222.44C119.518 215.908 119.505 209.377 119.56 202.952L120 203H120.5C120.5 203 133.194 203.585 139.5 203.713C150.441 203.935 161.105 203.756 172 202.5C172.441 202.449 172.883 202.399 173.326 202.348L173.326 202.348C179.48 201.645 185.821 200.92 191.705 199.04C200.665 196.176 208.796 191.818 215.896 185.621C224.445 178.161 230.632 169.003 234.952 158.552C238.761 149.335 240.812 139.717 241.364 129.759C241.898 120.13 241.02 110.643 238.57 101.32C235.476 89.5484 230.192 78.8997 222.159 69.6926C216.594 63.314 210.024 58.2462 202.489 54.3911C194.238 50.1694 185.457 47.6114 176.397 45.9633C165.979 44.0683 155.443 43.3472 144.868 43.2877C133.661 43.2248 122.468 43.6786 111.276 44.2551C103.428 44.6592 95.5755 44.9583 87.7227 45.2574H87.7226L87.7216 45.2575C84.3539 45.3857 80.9862 45.514 77.6189 45.6505C77.4098 45.659 77.2002 45.6567 76.9914 45.6543H76.9909H76.9904H76.99H76.9895H76.9891C76.8927 45.6532 76.7964 45.6521 76.7004 45.6521C76.7004 48.1295 76.7004 50.4731 76.6719 52.9621L76.6694 53.0836ZM0.55287 119.589C0.566608 119.421 0.580194 119.254 0.593773 119.086L0.593774 119.086C0.580192 119.254 0.56661 119.421 0.55287 119.589Z" fill="#6B9CEA"/>
<path d="M177.485 157.083C173.396 159.148 169.075 160.207 164.63 160.833C156.043 162.043 147.436 161.714 138.822 161.216C132.846 160.871 126.865 160.633 120.886 160.347C120.625 160.334 120.363 160.321 120.056 160.305C120.056 135.568 120.056 110.872 120.056 86.0354C121.252 86.0354 122.416 86.0451 123.58 86.0338C130.764 85.9643 137.949 85.784 145.132 85.8476C152.189 85.9102 159.198 86.5549 166.072 88.3218C171.347 89.6775 176.225 91.8189 180.444 95.3171C183.629 97.9585 186.245 101.104 188.358 104.659C192.722 111.998 194.682 119.971 194.431 128.484C194.253 134.516 192.858 140.248 189.788 145.491C186.835 150.534 182.779 154.431 177.485 157.083Z" fill="#6B9CEA"/>
<path d="M70.0249 58C73.1319 58.1353 76.2251 58.3429 79.3185 58.5497C84.593 58.9024 89.8673 59.2584 95.1422 59.6053C98.6425 59.8356 102.144 60.0524 105.644 60.2758C105.918 60.2932 106.192 60.3147 106.563 60.3413C106.485 61.3065 106.42 62.2162 106.334 63.1236C106.199 64.5506 106.048 65.9759 105.905 67.4021C105.803 68.416 105.705 69.4303 105.603 70.5754C105.406 72.9374 105.212 75.1684 105.006 77.4667C104.637 81.4181 104.277 85.3019 103.923 89.1862C103.544 93.3334 103.173 97.4814 102.793 101.628C102.356 106.406 101.911 111.183 101.47 115.961C101.033 120.686 100.605 125.412 100.157 130.136C99.9537 132.277 99.6226 134.419 100.452 136.506C101.581 141.642 102.704 146.779 103.841 151.912C106.149 162.333 110.575 172.752 112.879 183.175C112.969 183.581 112.998 184.01 113 184.428C113.025 191.737 110.932 199.047 110.962 206.425C110.988 212.962 111 219.43 111.021 225.898C111.069 240.102 111.121 254.305 111.171 268.508C111.172 268.663 111.171 268.817 111.171 269C97.4402 269 83.7533 269 70 269C70 268.708 70 268.451 70 268.193C70 198.364 70 128.535 70.0005 58.7053C70.0005 58.4942 70.0075 58.2831 70.0249 58Z" fill="#FFC867"/>
<path d="M389.208 257.52C401.24 257.52 410.883 254.277 418.136 247.792C425.475 241.221 429.144 231.365 429.144 218.224C429.144 205.083 425.005 194.629 416.728 186.864C408.536 179.099 398.381 175.216 386.264 175.216C378.499 175.216 371.757 175.429 366.04 175.856V256.496C371.587 257.179 379.309 257.52 389.208 257.52ZM386.264 169.584C400.344 169.584 412.12 173.979 421.592 182.768C431.064 191.472 435.8 203.333 435.8 218.352C435.8 225.947 434.563 232.688 432.088 238.576C429.699 244.379 426.371 249.029 422.104 252.528C413.315 259.611 402.349 263.152 389.208 263.152C380.589 263.152 370.819 262.683 359.896 261.744V170.48C368.6 169.883 377.389 169.584 386.264 169.584ZM482.156 262H476.396V232.304L445.036 178.928H452.076L476.268 220.144C478.145 223.899 479.212 225.904 479.468 226.16C479.98 225.051 481.047 223.088 482.668 220.272L506.86 178.928H513.516L482.156 232.56V262ZM530.36 262V178.416H533.176L587.704 241.136C589.667 243.355 591.459 245.573 593.08 247.792C594.787 249.925 595.683 251.035 595.768 251.12C595.597 249.072 595.512 245.061 595.512 239.088V178.928H601.4V262.512H598.584L543.032 198.768L535.992 190.192C536.163 191.899 536.248 195.909 536.248 202.224V262H530.36ZM636.206 233.2L624.302 262H618.286L653.102 178.416H656.558L691.63 262H685.102L673.07 233.2H636.206ZM654.51 187.888C653.23 191.728 652.078 194.928 651.054 197.488L638.254 228.208H671.022L658.35 197.616C656.387 192.837 655.107 189.595 654.51 187.888ZM747.013 257.648H743.557L719.365 198.896C718.341 196.592 717.317 193.904 716.293 190.832C716.293 190.917 716.208 191.387 716.037 192.24C715.952 193.093 715.824 194.245 715.653 195.696C715.482 197.061 715.312 198.213 715.141 199.152L705.541 262H699.781L713.349 178.416H716.805L742.661 239.728C744.709 244.848 745.733 247.536 745.733 247.792C746.33 246 747.482 243.355 749.189 239.856L777.989 178.416H781.445L794.117 262H787.973L778.885 198.896C778.288 194.715 777.989 191.941 777.989 190.576L774.277 199.024L747.013 257.648ZM816.11 262V178.928H821.998V262H816.11ZM917.375 257.904C910.975 261.488 902.058 263.28 890.623 263.28C879.274 263.28 869.247 259.184 860.543 250.992C851.924 242.8 847.615 232.645 847.615 220.528C847.615 208.325 851.37 198.128 858.879 189.936C866.474 181.744 876.244 177.648 888.191 177.648C897.834 177.648 907.263 179.141 916.479 182.128L914.943 186.992C906.068 184.261 896.895 182.896 887.423 182.896C877.951 182.896 869.972 186.523 863.487 193.776C857.087 200.944 853.887 209.776 853.887 220.272C853.887 230.683 857.599 239.557 865.023 246.896C872.532 254.235 881.194 257.904 891.007 257.904C900.82 257.904 908.97 256.539 915.455 253.808L917.375 257.904ZM955.128 182.512C950.52 182.512 946.765 183.621 943.864 185.84C940.963 188.059 939.512 191.173 939.512 195.184C939.512 199.792 941.432 203.931 945.272 207.6C948.003 210.245 951.501 213.061 955.768 216.048C960.12 218.949 963.107 221.04 964.728 222.32C966.349 223.6 968.312 225.349 970.616 227.568C974.797 231.749 976.888 236.571 976.888 242.032C976.888 249.115 974.499 254.491 969.72 258.16C965.027 261.744 958.413 263.536 949.88 263.536C941.432 263.536 934.349 261.317 928.632 256.88L931.704 252.4C937.507 256.325 943.651 258.288 950.136 258.288C956.621 258.288 961.656 256.923 965.24 254.192C968.909 251.461 970.744 247.621 970.744 242.672C970.744 238.405 968.909 234.48 965.24 230.896C962.68 228.336 959.224 225.563 954.872 222.576C950.605 219.589 947.619 217.456 945.912 216.176C944.205 214.811 942.2 213.019 939.896 210.8C935.544 206.448 933.368 201.413 933.368 195.696C933.368 189.979 935.373 185.499 939.384 182.256C943.48 179.013 949.112 177.392 956.28 177.392C963.448 177.392 969.891 178.8 975.608 181.616L973.432 186.352C968.141 183.792 962.04 182.512 955.128 182.512Z" fill="#2867CA"/>
<path d="M367.696 57.288C367.696 59.2507 367.525 60.232 367.184 60.232C366.672 60.232 366.075 60.1893 365.392 60.104C364.795 59.9333 364.027 59.848 363.088 59.848H342.608L326.736 59.72C326.224 59.72 324.304 59.848 320.976 60.104L318.032 60.36L317.776 63.816C317.691 65.096 317.648 67.1013 317.648 69.832C317.648 71.1973 317.733 72.9893 317.904 75.208C318.075 77.256 318.16 78.7493 318.16 79.688V84.808C318.16 86.1733 318.203 87.24 318.288 88.008C319.056 88.0933 320.208 88.136 321.744 88.136H326.864C327.376 88.136 328.4 88.0507 329.936 87.88C332.155 87.7093 334.075 87.624 335.696 87.624C336.379 87.624 338.768 87.752 342.864 88.008L345.68 88.136C346.363 88.136 347.344 88.0933 348.624 88.008C349.904 87.8373 351.141 87.752 352.336 87.752L356.56 87.88C358.779 88.0507 360.315 88.136 361.168 88.136C362.107 88.136 362.747 88.0933 363.088 88.008L363.856 87.88C364.453 87.88 364.88 88.0933 365.136 88.52C365.392 88.8613 365.477 89.2027 365.392 89.544C365.307 90.1413 365.264 90.9093 365.264 91.848C365.264 92.7013 365.221 93.4693 365.136 94.152C365.051 94.8347 364.923 95.2613 364.752 95.432C364.581 95.5173 364.069 95.56 363.216 95.56L358.096 95.048C351.696 94.4507 347.515 94.152 345.552 94.152C338.299 94.152 332.965 94.28 329.552 94.536C328.187 94.7067 326.693 94.792 325.072 94.792C323.451 94.792 322.427 94.792 322 94.792C320.379 94.792 319.184 94.7493 318.416 94.664L318.032 96.712C317.861 98.248 317.776 99.6133 317.776 100.808C317.776 101.832 317.861 103.027 318.032 104.392C318.203 105.757 318.288 106.952 318.288 107.976L318.416 123.208L318.288 129.608C318.203 130.376 318.16 131.443 318.16 132.808C319.269 132.893 320.891 132.936 323.024 132.936C324.816 133.021 327.589 133.064 331.344 133.064L338.256 133.192C339.707 133.277 341.925 133.32 344.912 133.32C346.704 133.32 349.051 133.235 351.952 133.064L357.328 132.936C359.376 132.936 361.083 132.979 362.448 133.064C363.813 133.149 364.837 133.192 365.52 133.192C366.203 133.192 366.587 133.32 366.672 133.576C366.843 133.832 366.928 134.387 366.928 135.24C366.928 135.837 366.885 136.477 366.8 137.16C366.715 137.757 366.672 138.44 366.672 139.208C366.672 139.805 366.459 140.232 366.032 140.488C365.605 140.659 364.923 140.744 363.984 140.744C363.045 140.744 362.277 140.701 361.68 140.616C359.376 140.36 354.725 140.232 347.728 140.232C343.461 140.232 340.389 140.275 338.512 140.36C337.061 140.445 334.672 140.488 331.344 140.488L319.44 140.36C318.075 140.275 316.453 140.232 314.576 140.232C313.381 140.232 312.571 140.104 312.144 139.848C311.803 139.507 311.632 138.995 311.632 138.312L311.76 136.264C311.845 135.923 311.888 135.539 311.888 135.112C311.888 134.856 311.845 134.259 311.76 133.32C311.675 132.296 311.632 130.461 311.632 127.816C311.632 125.256 311.547 121.075 311.376 115.272C311.12 110.493 310.992 105.885 310.992 101.448C310.992 99.5707 311.205 94.152 311.632 85.192C311.717 83.4 311.803 81.608 311.888 79.816C311.973 78.024 312.016 76.4027 312.016 74.952C312.016 65.0533 311.888 58.5253 311.632 55.368C311.376 53.32 312.613 52.296 315.344 52.296C316.027 52.296 317.136 52.3813 318.672 52.552C320.037 52.7227 321.061 52.808 321.744 52.808L329.808 52.552C335.611 52.2107 340.091 52.04 343.248 52.04C346.917 52.04 352.08 52.1253 358.736 52.296C360.869 52.3813 363.131 52.424 365.52 52.424C366.544 52.424 367.184 52.68 367.44 53.192C367.696 53.704 367.781 54.2587 367.696 54.856C367.696 55.368 367.696 55.7093 367.696 55.88V57.288ZM408.751 48.84C415.748 48.84 421.039 50.12 424.623 52.68C428.207 55.1547 430.682 57.4587 432.047 59.592C433.498 61.64 434.394 62.92 434.735 63.432C435.588 64.5413 436.015 65.3947 436.015 65.992C436.015 66.504 435.844 66.9307 435.503 67.272C435.162 67.6133 434.735 67.912 434.223 68.168C433.711 68.424 433.37 68.6373 433.199 68.808C432.175 69.4907 430.81 70.5573 429.103 72.008C428.335 72.6053 427.183 73.5013 425.647 74.696C424.196 75.8053 423.215 76.488 422.703 76.744C422.362 77 422.02 77.128 421.679 77.128C421.082 77.128 420.527 76.7867 420.015 76.104C419.503 75.4213 419.162 74.952 418.991 74.696C418.82 74.44 418.351 73.8853 417.583 73.032C416.9 72.1787 416.004 71.4533 414.895 70.856C413.786 70.2587 412.548 69.96 411.183 69.96C408.623 69.96 406.618 71.624 405.167 74.952C403.716 78.28 402.991 84.2107 402.991 92.744C402.991 98.376 403.46 102.984 404.399 106.568C405.338 110.152 406.447 112.755 407.727 114.376C409.092 115.912 410.372 116.68 411.567 116.68C413.274 116.68 414.554 116.296 415.407 115.528C416.346 114.76 417.156 113.309 417.839 111.176C418.522 109.128 419.631 108.104 421.167 108.104C421.679 108.104 422.234 108.189 422.831 108.36C423.514 108.531 424.026 108.659 424.367 108.744C425.22 109.085 427.311 109.64 430.639 110.408C433.967 111.091 436.826 111.645 439.215 112.072C440.41 112.328 441.007 113.352 441.007 115.144C441.007 115.997 440.964 116.637 440.879 117.064C440.794 118.173 440.452 119.667 439.855 121.544C438.063 127.005 434.991 131.955 430.639 136.392C426.372 140.744 419.972 142.92 411.439 142.92C406.234 142.92 400.986 141.341 395.695 138.184C390.404 135.027 385.924 129.779 382.255 122.44C378.586 115.016 376.751 105.288 376.751 93.256C376.751 76.1893 380.036 64.5413 386.607 58.312C393.178 51.9973 400.559 48.84 408.751 48.84ZM458.827 52.552C458.742 53.576 458.656 59.5493 458.571 70.472C458.486 81.3947 458.443 92.616 458.443 104.136C458.443 109.085 459.04 113.523 460.235 117.448C461.515 121.373 463.264 124.445 465.483 126.664C467.702 128.883 470.176 129.992 472.907 129.992C476.662 129.992 479.35 128.925 480.971 126.792C482.678 124.573 483.531 122.269 483.531 119.88L483.787 112.072C484.043 99.272 484.171 92.1893 484.171 90.824C484.171 88.8613 484.256 84.9787 484.427 79.176C484.683 74.312 484.811 69.5333 484.811 64.84C484.811 60.6587 484.64 57.7147 484.299 56.008C484.043 54.984 483.915 54.1733 483.915 53.576C483.915 52.3813 484.171 51.656 484.683 51.4C485.28 51.0587 485.835 50.9307 486.347 51.016C486.944 51.016 487.328 51.016 487.499 51.016C488.352 51.1013 489.291 51.144 490.315 51.144C491.424 51.0587 492.406 51.016 493.259 51.016H496.587C497.952 51.016 498.72 51.2293 498.891 51.656C499.147 51.9973 499.318 52.808 499.403 54.088C499.574 55.9653 499.659 58.2693 499.659 61C499.659 62.8773 499.616 64.2427 499.531 65.096C499.446 65.9493 499.488 69.5333 499.659 75.848C500.086 86.2587 500.299 94.8347 500.299 101.576V109.384C500.128 120.392 497.483 128.371 492.363 133.32C487.328 138.184 481.227 140.616 474.059 140.616C468.598 140.616 464.203 138.824 460.875 135.24C457.547 131.571 455.2 127.517 453.835 123.08C453.238 121.117 452.768 118.088 452.427 113.992C452.171 109.811 452.043 105.544 452.043 101.192C452.043 96.328 452.171 93.0853 452.427 91.464C452.598 90.2693 452.683 86.3013 452.683 79.56C452.683 68.808 452.512 61.0427 452.171 56.264C452.086 55.752 452.043 55.0693 452.043 54.216C452.043 51.5707 452.854 50.5893 454.475 51.272L455.883 51.4C456.224 51.4 456.566 51.3573 456.907 51.272C457.334 51.1867 457.76 51.144 458.187 51.144C458.614 51.144 458.827 51.6133 458.827 52.552ZM539.631 64.712C539.29 71.7093 539.119 76.9573 539.119 80.456L539.375 99.784C539.46 102.856 539.503 106.013 539.503 109.256L539.247 123.208L539.119 125.768L539.247 129.352L539.503 133.832L557.807 134.472L573.039 134.6H573.295C573.807 134.6 574.106 134.685 574.191 134.856C574.276 135.027 574.276 135.283 574.191 135.624C574.191 135.88 574.191 136.093 574.191 136.264C574.106 136.605 574.106 137.245 574.191 138.184C574.362 139.123 574.447 139.976 574.447 140.744C574.447 141.341 574.234 141.725 573.807 141.896C573.38 142.067 572.826 142.109 572.143 142.024C571.546 142.024 571.076 142.024 570.735 142.024L563.951 141.64C557.978 141.128 553.754 140.872 551.279 140.872C548.548 140.872 541.636 141.128 530.543 141.64L518.895 142.024C517.018 142.024 516.079 141.171 516.079 139.464V129.48L516.591 86.6C516.591 83.3573 516.378 77.4693 515.951 68.936L515.439 53.192C515.439 51.7413 515.994 51.016 517.103 51.016C517.53 51.016 518.255 51.144 519.279 51.4C520.303 51.656 521.114 51.784 521.711 51.784C524.1 52.1253 526.959 52.296 530.287 52.296C532.591 52.296 534.767 52.168 536.815 51.912C538.095 51.7413 538.991 51.8267 539.503 52.168C540.015 52.5093 540.271 53.064 540.271 53.832C540.271 54.4293 540.186 55.0693 540.015 55.752C539.93 56.3493 539.887 57.032 539.887 57.8L539.631 64.712ZM586.404 50.76C587.513 50.8453 588.58 50.888 589.604 50.888C590.713 50.8027 591.652 50.76 592.42 50.76C594.297 50.76 595.663 50.8027 596.516 50.888C597.54 50.9733 598.265 51.1867 598.692 51.528C599.119 51.8693 599.332 52.3387 599.332 52.936C599.332 53.3627 599.289 53.832 599.204 54.344C599.119 54.856 599.033 55.3253 598.948 55.752C598.009 63.0053 597.497 70.472 597.412 78.152C597.327 80.3707 597.284 83.784 597.284 88.392L597.412 103.88C597.497 105.16 597.54 106.483 597.54 107.848L597.668 112.968C597.839 117.405 597.924 120.691 597.924 122.824C597.924 124.445 597.881 125.427 597.796 125.768C597.711 126.109 597.668 127.091 597.668 128.712L597.796 135.752C597.881 136.776 597.924 138.056 597.924 139.592C598.009 140.701 597.668 141.384 596.9 141.64C596.217 141.981 595.279 142.109 594.084 142.024H582.436C581.156 142.109 580.345 141.811 580.004 141.128C579.663 140.531 579.449 139.507 579.364 138.056C579.193 137.459 579.279 135.88 579.62 133.32C579.961 130.931 580.132 128.883 580.132 127.176C580.132 126.579 580.431 120.819 581.028 109.896C581.54 101.875 581.796 97.48 581.796 96.712L582.052 84.168L582.308 72.52L582.564 65.608L582.82 61V55.624C582.82 52.296 583.673 50.632 585.38 50.632C585.807 50.632 586.148 50.6747 586.404 50.76ZM668.729 139.208C668.985 139.805 669.113 140.232 669.113 140.488C669.113 140.829 668.644 141 667.705 141H660.537C660.196 141 659.897 140.957 659.641 140.872C659.47 140.701 659.3 140.36 659.129 139.848C658.788 138.909 658.318 137.373 657.721 135.24C656.953 133.107 656.441 131.187 656.185 129.48C655.929 128.2 655.502 126.664 654.905 124.872C654.393 123.08 653.924 121.715 653.497 120.776C652.729 119.155 652.046 117.32 651.449 115.272L650.297 111.56C649.87 110.621 649.529 110.067 649.273 109.896C649.102 109.64 648.761 109.512 648.249 109.512C646.457 109.512 645.134 109.555 644.281 109.64L638.777 109.896C638.094 109.981 634.937 110.024 629.305 110.024H621.497H621.241C620.729 110.024 620.345 110.493 620.089 111.432L619.833 112.712L619.321 115.144C619.15 115.571 618.596 118.045 617.657 122.568C617.401 124.019 616.974 125.896 616.377 128.2C616.206 129.907 615.822 131.315 615.225 132.424C615.054 132.68 614.841 133.277 614.585 134.216C614.329 135.155 614.116 135.923 613.945 136.52C613.689 137.203 613.39 138.312 613.049 139.848C612.964 139.933 612.878 140.147 612.793 140.488C612.708 140.744 612.58 140.915 612.409 141C612.238 141 611.982 141 611.641 141H609.081C608.313 141 608.1 140.445 608.441 139.336C608.441 139.08 608.484 138.867 608.569 138.696C608.569 138.525 608.612 138.312 608.697 138.056C608.782 137.8 608.91 137.416 609.081 136.904L610.233 132.168C610.404 131.656 610.702 130.76 611.129 129.48C611.556 128.2 611.854 127.005 612.025 125.896C612.452 123.848 613.262 120.733 614.457 116.552L615.481 112.968C617.102 107.677 618.126 103.965 618.553 101.832L620.345 95.048C621.198 92.232 621.71 90.44 621.881 89.672C622.478 87.112 623.332 83.912 624.441 80.072L625.337 76.488L626.105 73.8C626.958 70.8987 627.684 68.808 628.281 67.528C628.452 67.016 629.049 65.2667 630.073 62.28C631.182 59.208 631.908 56.776 632.249 54.984C632.846 52.936 633.444 51.4 634.041 50.376C634.724 49.352 635.62 48.84 636.729 48.84C637.156 48.84 637.582 49.224 638.009 49.992C638.436 50.76 638.862 51.6987 639.289 52.808C639.716 53.9173 640.014 54.728 640.185 55.24C640.868 56.8613 642.062 60.9147 643.769 67.4L644.793 70.984C644.878 71.6667 646.286 75.848 649.017 83.528L651.449 90.568L653.753 96.584C656.142 103.325 657.678 107.421 658.361 108.872C661.348 117.917 663.097 123.379 663.609 125.256C664.206 127.475 665.145 130.248 666.425 133.576C667.79 136.904 668.558 138.781 668.729 139.208ZM644.793 101.192C645.902 101.192 646.457 100.893 646.457 100.296C646.457 99.8693 646.158 98.9307 645.561 97.48C645.049 96.2 644.281 93.8107 643.257 90.312C642.489 87.496 641.721 85.064 640.953 83.016C640.1 80.456 639.161 77.4267 638.137 73.928C637.198 70.4293 636.644 68.168 636.473 67.144C635.193 62.6213 634.34 60.36 633.913 60.36C633.657 60.36 633.23 61.512 632.633 63.816L631.865 66.632C631.268 68.936 630.5 71.8373 629.561 75.336C628.622 78.7493 627.769 81.6507 627.001 84.04C626.489 86.2587 625.764 89.0747 624.825 92.488C623.972 95.816 623.289 98.12 622.777 99.4C622.606 99.912 622.521 100.211 622.521 100.296C622.521 100.893 622.777 101.277 623.289 101.448C623.886 101.619 624.441 101.704 624.953 101.704C625.55 101.619 625.934 101.576 626.105 101.576L633.529 101.32C634.553 101.149 636.004 101.064 637.881 101.064L644.793 101.192ZM736.42 135.752C738.724 138.056 739.876 139.635 739.876 140.488C739.876 140.659 739.663 140.957 739.236 141.384C738.468 141.896 736.548 142.152 733.476 142.152C731.257 142.152 729.849 141.981 729.252 141.64C728.655 141.384 728.185 140.915 727.844 140.232C727.588 139.549 727.375 139.037 727.204 138.696C726.948 138.184 725.881 136.733 724.004 134.344C722.212 131.869 720.847 129.992 719.908 128.712C715.385 122.909 711.46 117.661 708.132 112.968C706.084 110.067 702.287 105.075 696.74 97.992L694.692 95.432L685.86 84.424L685.348 89.544C685.007 92.104 684.921 95.176 685.092 98.76C685.348 101.149 685.519 107.336 685.604 117.32C685.689 127.304 685.732 134.6 685.732 139.208C685.732 140.573 685.22 141.427 684.196 141.768C683.172 142.195 681.977 142.408 680.612 142.408C680.015 142.408 679.631 142.152 679.46 141.64C679.289 141.128 679.161 140.573 679.076 139.976C679.076 139.379 679.076 138.995 679.076 138.824C678.905 137.459 678.82 135.453 678.82 132.808C678.82 131.101 678.863 129.821 678.948 128.968C679.033 124.36 679.161 116.339 679.332 104.904C679.503 93.384 679.588 83.0587 679.588 73.928C679.588 64.1147 679.46 58.3973 679.204 56.776C679.119 56.0933 679.076 55.1973 679.076 54.088C679.076 52.808 679.247 51.9973 679.588 51.656C680.015 51.3147 680.612 51.144 681.38 51.144C683.087 51.144 684.751 51.1867 686.372 51.272L700.324 51.528C705.444 51.528 710.777 52.424 716.324 54.216C721.871 56.008 724.644 59.336 724.644 64.2C724.644 68.808 722.937 72.392 719.524 74.952C716.111 77.512 712.271 79.2613 708.004 80.2C703.823 81.1387 700.153 81.608 696.996 81.608C695.887 81.608 695.289 81.5653 695.204 81.48C695.716 81.992 699.087 86.5147 705.316 95.048C724.089 120.221 734.457 133.789 736.42 135.752ZM685.476 76.36C688.292 76.36 690.425 76.3173 691.876 76.232C696.825 76.0613 700.665 75.72 703.396 75.208C707.321 74.5253 710.265 73.5867 712.228 72.392C714.276 71.1973 715.3 69.32 715.3 66.76C715.3 65.0533 714.404 63.6027 712.612 62.408C710.82 61.128 708.644 60.1893 706.084 59.592C703.609 58.9093 701.433 58.568 699.556 58.568C697.423 58.4827 694.436 58.44 690.596 58.44H686.244L685.476 76.36Z" fill="#2867CA"/>
</svg>
