<svg 
   xmlns="http://www.w3.org/2000/svg" 
   width="768" 
   height="768" 
   viewBox="-1.701 -1.701 60.102 60.102"
   >
   <path style="fill:#001d62;" d="M0 0h56.7v56.7H0z"/>

   <path style="fill:#c8102e" d="M5.7 46.8h51v1.1h-51z"/>
   <path  style="fill:#fff" 
      d="
         m 29.9 5.3-1.2.6
         v 2.8
         c -.3-.4-.9-.7-1.7-.7-1.4 0-2.8 1-2.8 3.3.1 1.6 1 3.2 2.9 3.2.8 0 1.5-.4 1.8-.9
         v.7
         h 1
         z
         m -24.2.4
         v 8.7
         h 4.8
         v -1.2
         H 7
         V 5.7
         z
         m 8.1 2.2
         c -1.7 0-2.9 1.3-2.9 3.3 0 2 1.2 3.3 2.9 3.3
         s 2.9-1.3 2.9-3.3
         c 0-1.9-1.2-3.3-2.9-3.3zm20.3 0c-1.7 0-2.9 1.3-2.9 3.3 0 2 1.2 3.3 2.9 3.3s2.9-1.3 2.9-3.3c0-2-1.2-3.3-2.9-3.3zm7.3 0c-.7 0-1.4.3-2 .9v-.7h-1v6.3h1.2v-4.3c.3-.5 1-1 1.7-1 .8 0 1 .5 1 1.3v3.9h1.2v-4.1c0-1.5-.7-2.3-2.1-2.3zM21 8c-.7 0-1.4.3-2 .9v-.8h-1v6.3h1.2v-4.3c.3-.5 1-1 1.7-1 .9 0 1 .5 1 1.4v3.9h1.2v-4.1c0-1.5-.7-2.3-2.1-2.3zm-7.2 1c1 0 1.7.9 1.7 2.2 0 1.3-.7 2.2-1.7 2.2s-1.7-.8-1.7-2.2c0-1.3.7-2.2 1.7-2.2zm13.5 0c.6 0 1.2.4 1.5 1v2.5c-.3.6-.9 1-1.5 1-1.1 0-1.8-.9-1.8-2.2 0-1.3.7-2.3 1.8-2.3zm6.8 0c1 0 1.7.9 1.7 2.2 0 1.3-.7 2.2-1.7 2.2s-1.7-.9-1.7-2.2c0-1.3.7-2.2 1.7-2.2zM5.7 18v8.7h2.9c1.8 0 2.9-.9 2.9-2.5 0-.6-.2-1.6-1.6-1.9v-.2c.7-.3 1.1-.9 1.1-1.7 0-1.5-1-2.4-2.9-2.4zM25 18v1.4h1.2V18zM7 19.1h1.2c1.1 0 1.7.4 1.7 1.3s-.6 1.3-1.7 1.3H7zm14.6 1c-1.3 0-2.2.7-2.2 1.8 0 1.2 1.1 1.6 1.9 1.9l.1.1c.6.2 1.2.4 1.2 1 0 .5-.4.9-1.1.9-.7 0-1.4-.4-1.8-.8l-.8 1c.7.5 1.6.9 2.4.9 1.6 0 2.3-1 2.3-1.9.1-1.2-.9-1.6-1.7-1.9l-.2-.1c-.7-.2-1.2-.5-1.2-1s.4-.8 1.1-.8c.5 0 1 .3 1.4.6l.6-.9c-.3-.3-1.1-.8-2-.8zm21.2 0c-1.3 0-2.2.7-2.2 1.8 0 1.2 1.1 1.6 1.9 1.9l.1.1c.6.2 1.2.4 1.2 1 0 .5-.4.9-1.1.9-.7 0-1.4-.4-1.8-.8l-.7 1c.7.5 1.6.9 2.4.9 1.6 0 2.3-1 2.3-1.9 0-1.3-.9-1.6-1.7-1.9l-.3-.1c-.7-.2-1.2-.5-1.2-1s.4-.8 1.1-.8c.5 0 1 .3 1.4.6l.6-.9c-.3-.3-1.1-.8-2-.8zm5.4 0c-1.3 0-2.2.7-2.2 1.8 0 1.2 1.1 1.6 1.9 1.9l.1.1c.6.2 1.2.4 1.2 1 0 .5-.4.9-1.1.9-.7 0-1.4-.4-1.8-.8l-.7 1c.7.5 1.6.9 2.4.9 1.6 0 2.3-1 2.3-1.9 0-1.3-.9-1.6-1.7-1.9l-.3-.1c-.7-.2-1.2-.5-1.2-1s.4-.8 1.1-.8c.5 0 1 .3 1.4.6l.6-.9c-.3-.3-1.1-.8-2-.8zm-11.3.1c-1.4 0-2.9 1.2-2.9 3.3 0 2 1.2 3.3 3 3.3.7 0 1.4-.2 2.1-.7h.1l-.4-.9h-.1c-.5.3-1 .5-1.5.5-1.1 0-1.9-.7-2-1.9h4.2c.2-1.2-.1-2.2-.7-2.9-.4-.5-1-.7-1.8-.7zm-6 .1c-.7 0-1.4.3-2 .9v-.8h-1v6.3H29v-4.3c.3-.5 1-1 1.7-1 .9 0 1 .5 1 1.4v3.9H33v-4.1c0-1.5-.7-2.3-2.1-2.3zm-18.2.1v4.1c0 1.5.7 2.3 2.1 2.3.7 0 1.4-.3 2-.9v.8h1v-6.3h-1.2v4.3c-.3.5-1 1-1.7 1-.9 0-1-.5-1-1.4v-3.9zm12.3 0v6.3h1.2v-6.3zm12 .8c.9 0 1.4.8 1.4 1.7h-3.1c.1-1 .8-1.7 1.7-1.7zM7 22.8h1.7c1.1 0 1.7.5 1.7 1.4 0 .9-.7 1.4-1.8 1.4H7zm12.6 7.1-1.2.6V39h1.2v-4.3c.3-.5 1-1 1.7-1 .9 0 1 .5 1 1.4V39h1.2v-4.1c.1-1.5-.6-2.3-2-2.3-.7 0-1.3.3-1.9.8zm20.1 0-1.2.6V39h1.2zm-31.2.3c-1.6 0-2.7 1-2.7 2.4s1.1 2.1 1.7 2.3l1.3.5c.8.3 1.3.6 1.3 1.4 0 .8-.6 1.3-1.7 1.3-.8 0-1.7-.5-2.3-1.1l-.7.9c.7.7 2 1.3 3 1.3 1.7 0 2.9-1 2.9-2.4s-.9-2-1.7-2.4l-1.3-.5c-.6-.3-1.3-.6-1.3-1.4 0-.7.5-1.2 1.5-1.2.7 0 1.3.3 1.9.9l.7-.9c-.7-.7-1.6-1.1-2.6-1.1zm6.8 2.2c-.8 0-1.6.3-2.1.9-.6.6-.9 1.5-.9 2.5 0 2 1.2 3.3 3 3.3.7 0 1.5-.3 2.1-.8l-.5-.9c-.5.4-1 .6-1.6.6-1.1 0-1.8-.8-1.8-2.2 0-1.3.7-2.2 1.9-2.2.5 0 .9.2 1.2.5l.6-.9c-.6-.5-1.2-.8-1.9-.8zm12.4.2c-1.7 0-2.9 1.3-2.9 3.3 0 2 1.2 3.3 2.9 3.3s2.9-1.3 2.9-3.3c0-2-1.2-3.3-2.9-3.3zm6.6 0c-1.7 0-2.9 1.3-2.9 3.3 0 2 1.2 3.3 2.9 3.3s2.9-1.3 2.9-3.3c0-2-1.2-3.3-2.9-3.3zm-6.6 1.1c1 0 1.7.9 1.7 2.2 0 1.3-.7 2.2-1.7 2.2s-1.7-.9-1.7-2.2c0-1.3.7-2.2 1.7-2.2zm6.6 0c1 0 1.7.9 1.7 2.2 0 1.3-.7 2.2-1.7 2.2s-1.7-.9-1.7-2.2c0-1.3.7-2.2 1.7-2.2z"/>
</svg>