<svg width="306" height="320" viewBox="0 0 306 320" fill="none" xmlns="http://www.w3.org/2000/svg">
<path d="M76.5 52C76.5 49.6564 76.5 47.8461 76.5 45.3686C76.8047 45.3686 77.6121 45.3811 77.9185 45.3686C89.1379 44.9137 100.362 44.5507 111.575 43.9732C122.768 43.3968 133.961 42.9429 145.168 43.0058C155.743 43.0653 166.278 43.7864 176.696 45.6814C185.757 47.3295 194.538 49.8875 202.789 54.1092C210.323 57.9643 216.894 63.0321 222.459 69.4107C230.491 78.6178 235.776 89.2665 238.869 101.038C241.319 110.361 242.197 119.848 241.664 129.477C241.112 139.435 239.061 149.053 235.251 158.271C230.932 168.721 224.744 177.879 216.196 185.339C209.095 191.536 200.964 195.894 192.004 198.758C185.697 200.774 179.238 202.017 172.674 202.774C161.779 204.03 150.845 203.996 139.905 203.775C133.598 203.647 127.291 203.545 120.984 203.432C120.692 203.427 120.4 203.431 120.038 203.431C119.976 203.167 119.918 202.918 119.813 202.547C119.747 195.042 119.729 187.661 119.702 180.28C119.701 179.857 119.67 179.424 119.576 179.014C117.168 168.489 114.746 157.968 112.334 147.444C111.146 142.26 109.972 137.072 108.792 131.839C108.829 131.448 108.873 131.105 108.901 130.761C109.243 126.65 109.58 122.538 109.923 118.426C110.379 112.962 110.842 107.499 111.297 102.035C111.692 97.287 112.08 92.5389 112.47 87.7909C112.897 82.5927 113.322 77.3944 113.782 72.1436C113.932 70.7655 114.074 69.4416 114.155 68.1139C114.213 67.1783 114.188 66.2377 114.189 65.2368C114.282 64.1503 114.385 63.126 114.491 62.1021C114.641 60.6619 114.799 59.2225 114.94 57.7816C115.03 56.8652 115.098 55.9465 115.18 54.9718C114.792 54.945 114.505 54.9233 114.219 54.9057C110.56 54.6801 106.9 54.4612 103.241 54.2286C97.7273 53.8783 92.214 53.5187 86.7005 53.1626C83.4669 52.9538 83.5 53 76.5 52ZM177.537 157.052C182.78 154.431 186.836 150.534 189.789 145.491C192.859 140.247 194.254 134.516 194.432 128.484C194.683 119.971 192.723 111.998 188.359 104.658C186.245 101.104 183.629 97.9584 180.444 95.317C176.226 91.8188 171.347 89.6774 166.073 88.3217C159.199 86.5548 152.189 85.9101 145.132 85.8475C137.95 85.7839 130.765 85.9642 123.58 86.0337C122.417 86.045 121.253 86.0353 120.056 86.0353C120.056 110.872 120.056 135.568 120.056 160.305C120.364 160.32 120.625 160.334 120.887 160.347C126.865 160.633 132.847 160.871 138.822 161.216C147.437 161.714 156.044 162.043 164.63 160.833C169.075 160.207 173.396 159.148 177.537 157.052Z" fill="#FFAD1E"/>
<path fill-rule="evenodd" clip-rule="evenodd" d="M0.160156 179.68C0.160156 160.156 0.160156 140.633 0.223569 121.022C0.268391 120.961 0.310746 120.913 0.346832 120.871L0.347005 120.871L0.347288 120.871L0.347551 120.87L0.34758 120.87C0.409904 120.799 0.453358 120.749 0.458213 120.695L0.458214 120.695C0.450769 120.777 0.352534 120.851 0.234683 120.939L0.234666 120.939L0.22357 120.948C0.160156 118.29 0.160156 115.62 0.160156 112.875C0.47636 112.802 0.792563 112.8 1.17259 112.797L1.2068 112.797C1.14774 113.654 1.04957 114.51 0.951231 115.369L0.95122 115.369L0.951212 115.369C0.900638 115.81 0.850021 116.252 0.804658 116.695L0.804657 116.695C0.906676 115.7 1.03527 114.708 1.16758 113.687L1.16759 113.687C1.20851 113.371 1.24979 113.053 1.29075 112.731C1.45009 111.561 1.60127 110.397 1.75183 109.237L1.75186 109.237C2.05448 106.907 2.35461 104.597 2.7134 102.295C2.95932 100.718 3.20087 99.1393 3.44244 97.5608C4.31655 91.8491 5.19082 86.1363 6.27235 80.4638C7.87199 72.0739 10.3343 63.9244 14.1914 56.2543C16.4996 51.6641 19.2928 47.4073 22.7072 43.5554C28.7834 36.7007 36.0288 31.3231 43.898 26.7612C54.8943 20.3865 66.6906 15.9132 78.8508 12.3711C93.0812 8.22596 107.618 5.58406 122.34 4.06234C131.307 3.13555 140.307 2.4255 149.311 1.99696C162.239 1.38158 175.171 1.64906 188.072 2.85299C196.019 3.59462 203.92 4.64149 211.745 6.23977C222.399 8.41614 232.794 11.4277 242.777 15.7984C251.456 19.5984 259.524 24.3933 266.789 30.5018C274.465 36.9566 280.57 44.7147 285.338 53.5039C286.888 56.3613 288.255 59.3183 289.623 62.2749L289.623 62.2754L289.623 62.276L289.624 62.2765L289.624 62.2771L289.624 62.2776C290.177 63.473 290.73 64.6683 291.295 65.857C291.478 66.2421 291.614 66.6496 291.754 67.0683C291.822 67.2735 291.892 67.4814 291.968 67.6907C291.999 67.6862 292.046 67.7177 292.089 67.7924C292.043 67.8126 292.012 67.7928 291.986 67.7369C292.012 67.7955 292.045 67.8272 292.1 67.868C292.103 67.8752 292.105 67.8842 292.107 67.8943C292.11 67.9078 292.112 67.9231 292.114 67.9386L292.114 67.9395C292.117 67.9648 292.121 67.9903 292.127 68.0082C292.16 68.0042 292.206 68.037 292.248 68.1124C292.207 68.1306 292.177 68.1171 292.153 68.0743C292.178 68.1238 292.21 68.1561 292.26 68.2036C292.273 68.318 292.274 68.3845 292.269 68.5173C292.269 68.5177 292.269 68.5181 292.269 68.5185C292.421 68.901 292.579 69.2856 292.738 69.6729L292.738 69.6733C293.216 70.8382 293.705 72.0275 294.059 73.2557C295.12 76.9335 296.173 80.6204 297.014 84.3523C297.523 86.6089 297.789 88.9249 298.054 91.2323V91.2326C298.088 91.5327 298.123 91.8327 298.158 92.1323C298.401 94.2163 298.56 96.3153 298.639 98.4121C298.759 101.563 298.829 104.715 298.9 107.903L298.9 107.907L298.901 107.911L298.901 107.915L298.901 107.919C298.921 108.823 298.941 109.73 298.962 110.641C298.92 110.566 298.864 110.45 298.836 110.321C298.852 110.397 298.877 110.475 298.905 110.559C298.926 110.624 298.948 110.692 298.968 110.765C298.987 110.884 298.992 110.953 298.947 111.066C298.947 111.066 298.946 111.066 298.946 111.067C299.042 111.265 299.125 111.508 299.126 111.751C299.137 113.49 299.131 115.228 299.122 117.041C299.084 116.939 299.035 116.803 299.005 116.655C299.021 116.741 299.044 116.829 299.067 116.922L299.068 116.922L299.068 116.923C299.087 117 299.108 117.081 299.127 117.167C299.145 117.289 299.15 117.359 299.103 117.474C299.103 117.474 299.103 117.474 299.103 117.474C299.201 117.542 299.283 117.652 299.286 117.764C299.32 119.105 299.35 120.446 299.379 121.787C299.403 122.859 299.427 123.931 299.453 125.003C299.5 126.99 299.552 128.977 299.614 130.963C299.635 131.659 299.664 132.354 299.694 133.049C299.721 133.7 299.748 134.352 299.769 135.003C299.841 137.214 299.909 139.425 299.977 141.636C300.015 142.865 300.053 144.095 300.091 145.324C300.109 145.872 300.129 146.421 300.149 146.969C300.188 148.06 300.228 149.151 300.246 150.243L300.256 150.871C300.319 154.781 300.382 158.691 300.403 162.601C300.424 166.729 300.39 170.858 300.318 175.019C300.185 172.843 300.094 170.648 300.005 168.449C300.081 170.38 300.151 172.319 300.223 174.289L300.223 174.301L300.224 174.323L300.225 174.337L300.225 174.346L300.253 175.126C300.28 176.28 300.31 177.425 300.339 178.563L300.339 178.567L300.339 178.571L300.339 178.575L300.339 178.578L300.339 178.582C300.388 180.478 300.437 182.356 300.472 184.235C300.657 193.945 300.416 203.627 299.016 213.267C297.514 223.603 294.327 233.367 289.463 242.579C280.901 258.797 268.838 271.918 253.962 282.502C246.716 287.658 238.96 291.917 230.715 295.249C222.489 298.573 213.95 300.675 205.148 301.809L203.799 301.983C194.409 303.194 185.018 304.405 175.565 304.978C166.962 305.499 158.35 305.949 149.734 306.194C138.794 306.504 127.862 306.09 116.961 305.089C113.342 304.756 109.734 304.295 106.128 303.834L106.127 303.834L105.156 303.71C103.278 303.47 101.406 303.18 99.5347 302.891L99.5338 302.891L99.5329 302.891L99.5321 302.891L99.5312 302.891C98.8077 302.779 98.0843 302.667 97.3604 302.557C96.3136 302.4 95.269 302.227 94.1864 302.02L94.1862 302.02C93.9236 302.058 93.6241 302.055 93.292 301.998C93.5325 301.959 93.8 301.966 94.0979 302.007C93.8317 301.97 93.5846 301.956 93.3088 301.941L93.3079 301.941L93.2074 301.936C93.0858 301.919 93.0166 301.91 92.9363 301.842L92.9362 301.841L92.6313 301.808L92.6304 301.808C91.3643 301.67 90.0799 301.531 88.8228 301.263C85.0935 300.468 81.3884 299.572 77.8019 298.246C77.5234 298.143 77.2447 298.041 76.9654 297.939C76.0215 297.592 75.0717 297.244 74.1055 296.861L74.1508 296.862H74.152C74.434 296.866 74.7431 296.871 75.0372 296.937C74.8377 296.892 74.6275 296.872 74.4081 296.851L74.4072 296.851C74.283 296.839 74.1559 296.826 74.0261 296.809C73.9113 296.8 73.8462 296.79 73.7608 296.746L73.7605 296.746C73.7313 296.762 73.6818 296.745 73.6143 296.688C73.6372 296.669 73.6667 296.673 73.7035 296.698C73.6625 296.67 73.6212 296.657 73.5614 296.648C73.5264 296.648 73.4617 296.62 73.4413 296.587C73.4219 296.569 73.4041 296.555 73.3857 296.543C73.4024 296.554 73.4208 296.569 73.4409 296.587C73.4118 296.603 73.3624 296.585 73.2969 296.527C73.3167 296.513 73.3416 296.517 73.3727 296.534C73.3334 296.511 73.2895 296.498 73.2208 296.487C72.2995 296.091 71.3796 295.7 70.462 295.31L70.4614 295.31L70.461 295.31C67.6599 294.119 64.8803 292.937 62.1468 291.656C53.969 287.824 46.4346 282.988 40.0386 276.56C30.4782 266.951 23.0621 255.816 17.2685 243.59C9.58083 227.366 4.94011 210.227 2.23943 192.527C1.85189 189.987 1.53134 187.437 1.21077 184.887C1.01649 183.341 0.82221 181.796 0.613011 180.252C0.593823 180.111 0.462828 179.984 0.331835 179.858C0.270847 179.799 0.209859 179.74 0.160156 179.68ZM76.6694 53.0836L76.6675 53.1658C76.6641 53.3111 76.6606 53.4564 76.6606 53.6017C76.6601 122.074 76.6601 190.547 76.6601 259.019V265.151L76.6601 265.966H119.697L119.697 265.824C119.697 265.698 119.697 265.584 119.697 265.469C119.681 261.2 119.665 256.93 119.65 252.66C119.612 242.587 119.575 232.513 119.54 222.44C119.518 215.908 119.505 209.377 119.56 202.952L120 203H120.5C120.5 203 133.194 203.585 139.5 203.713C150.441 203.935 161.105 203.756 172 202.5C172.441 202.449 172.883 202.399 173.326 202.348L173.326 202.348C179.48 201.645 185.821 200.92 191.705 199.04C200.665 196.176 208.796 191.818 215.896 185.621C224.445 178.161 230.632 169.003 234.952 158.552C238.761 149.335 240.812 139.717 241.364 129.759C241.898 120.13 241.02 110.643 238.57 101.32C235.476 89.5484 230.192 78.8997 222.159 69.6926C216.594 63.314 210.024 58.2462 202.489 54.3911C194.238 50.1694 185.457 47.6114 176.397 45.9633C165.979 44.0683 155.443 43.3472 144.868 43.2877C133.661 43.2248 122.468 43.6786 111.276 44.2551C103.428 44.6592 95.5755 44.9583 87.7227 45.2574H87.7226L87.7216 45.2575C84.3539 45.3857 80.9862 45.514 77.6189 45.6505C77.4098 45.659 77.2002 45.6567 76.9914 45.6543H76.9909H76.9904H76.99H76.9895H76.9891C76.8927 45.6532 76.7964 45.6521 76.7004 45.6521C76.7004 48.1295 76.7004 50.4731 76.6719 52.9621L76.6694 53.0836ZM0.55287 119.589C0.566608 119.421 0.580194 119.254 0.593773 119.086L0.593774 119.086C0.580192 119.254 0.56661 119.421 0.55287 119.589Z" fill="#6B9CEA"/>
<path d="M177.485 157.083C173.396 159.148 169.075 160.207 164.63 160.833C156.043 162.043 147.436 161.714 138.822 161.216C132.846 160.871 126.865 160.633 120.886 160.347C120.625 160.334 120.363 160.321 120.056 160.305C120.056 135.568 120.056 110.872 120.056 86.0354C121.252 86.0354 122.416 86.0451 123.58 86.0338C130.764 85.9643 137.949 85.784 145.132 85.8476C152.189 85.9102 159.198 86.5549 166.072 88.3218C171.347 89.6775 176.225 91.8189 180.444 95.3171C183.629 97.9585 186.245 101.104 188.358 104.659C192.722 111.998 194.682 119.971 194.431 128.484C194.253 134.516 192.858 140.248 189.788 145.491C186.835 150.534 182.779 154.431 177.485 157.083Z" fill="#6B9CEA"/>
<path d="M70.0249 58C73.1319 58.1353 76.2251 58.3429 79.3185 58.5497C84.593 58.9024 89.8673 59.2584 95.1422 59.6053C98.6425 59.8356 102.144 60.0524 105.644 60.2758C105.918 60.2932 106.192 60.3147 106.563 60.3413C106.485 61.3065 106.42 62.2162 106.334 63.1236C106.199 64.5506 106.048 65.9759 105.905 67.4021C105.803 68.416 105.705 69.4303 105.603 70.5754C105.406 72.9374 105.212 75.1684 105.006 77.4667C104.637 81.4181 104.277 85.3019 103.923 89.1862C103.544 93.3334 103.173 97.4814 102.793 101.628C102.356 106.406 101.911 111.183 101.47 115.961C101.033 120.686 100.605 125.412 100.157 130.136C99.9537 132.277 99.6226 134.419 100.452 136.506C101.581 141.642 102.704 146.779 103.841 151.912C106.149 162.333 110.575 172.752 112.879 183.175C112.969 183.581 112.998 184.01 113 184.428C113.025 191.737 110.932 199.047 110.962 206.425C110.988 212.962 111 219.43 111.021 225.898C111.069 240.102 111.121 254.305 111.171 268.508C111.172 268.663 111.171 268.817 111.171 269C97.4402 269 83.7533 269 70 269C70 268.708 70 268.451 70 268.193C70 198.364 70 128.535 70.0005 58.7053C70.0005 58.4942 70.0075 58.2831 70.0249 58Z" fill="#FFC867"/>
<path fill-rule="evenodd" clip-rule="evenodd" d="M76.5 52V50H73V58.1495C75.0731 58.2659 77.142 58.4042 79.2109 58.5425L79.3185 58.5497C80.7595 58.6461 82.2004 58.7427 83.6414 58.8392C87.4749 59.0962 91.3084 59.3532 95.1422 59.6053C97.4986 59.7603 99.8554 59.9093 102.212 60.0582C103.356 60.1305 104.5 60.2028 105.644 60.2758C105.826 60.2874 106.007 60.3007 106.217 60.3161C106.324 60.3239 106.438 60.3323 106.563 60.3413C106.539 60.6441 106.515 60.9415 106.492 61.2351C106.442 61.8771 106.393 62.5009 106.334 63.1236C106.246 64.0519 106.151 64.9794 106.057 65.907C106.006 66.4053 105.955 66.9037 105.905 67.4021C105.803 68.416 105.705 69.4303 105.603 70.5754C105.406 72.9374 105.212 75.1684 105.006 77.4667C104.637 81.4181 104.277 85.3019 103.923 89.1862C103.749 91.0862 103.578 92.9864 103.406 94.8866C103.203 97.134 102.999 99.3813 102.793 101.628C102.49 104.937 102.184 108.245 101.878 111.553C101.742 113.022 101.606 114.491 101.47 115.961C101.343 117.336 101.216 118.712 101.09 120.088C100.782 123.438 100.474 126.787 100.157 130.136C100.137 130.349 100.115 130.563 100.094 130.777C99.8992 132.704 99.7054 134.627 100.452 136.506C100.804 138.107 101.156 139.708 101.507 141.309C102.283 144.844 103.059 148.379 103.841 151.912C104.994 157.118 106.675 162.323 108.357 167.528C110.041 172.743 111.726 177.959 112.879 183.175C112.969 183.581 112.998 184.01 113 184.428C113.013 188.071 112.499 191.715 111.984 195.367C111.466 199.041 110.947 202.725 110.962 206.425C110.977 210.314 110.988 214.178 110.998 218.032C111.005 220.657 111.012 223.278 111.021 225.898C111.055 235.886 111.09 245.873 111.126 255.861C111.138 259.24 111.15 262.62 111.162 266H120V203.269C119.95 203.06 119.897 202.842 119.813 202.547C119.757 196.239 119.736 190.019 119.715 183.813C119.711 182.635 119.707 181.457 119.702 180.28C119.701 179.857 119.67 179.424 119.576 179.014C118.173 172.879 116.764 166.745 115.356 160.61L115.354 160.603C114.347 156.216 113.339 151.83 112.334 147.444C111.146 142.26 109.972 137.072 108.792 131.839C108.808 131.667 108.826 131.505 108.843 131.347L108.843 131.347L108.843 131.347C108.864 131.146 108.885 130.954 108.901 130.761C109.049 128.979 109.196 127.197 109.344 125.415C109.536 123.086 109.728 120.756 109.923 118.426C110.133 115.901 110.346 113.376 110.558 110.851L110.558 110.849C110.805 107.911 111.052 104.973 111.297 102.035C111.631 98.0191 111.96 94.0033 112.29 89.9875L112.47 87.7909L112.547 86.8506C112.948 81.9656 113.35 77.0778 113.782 72.1436C113.932 70.7655 114.074 69.4416 114.155 68.1139C114.199 67.4022 114.195 66.6876 114.191 65.9458C114.19 65.7124 114.189 65.4763 114.189 65.2368C114.282 64.1503 114.385 63.126 114.491 62.1021C114.544 61.5986 114.597 61.0952 114.65 60.5919L114.65 60.5917C114.749 59.6552 114.848 58.7187 114.94 57.7816C115.002 57.1529 115.053 56.5231 115.106 55.8749L115.106 55.8746C115.13 55.5781 115.154 55.2777 115.18 54.9718C115.049 54.9628 114.93 54.9543 114.818 54.9464C114.599 54.9308 114.409 54.9174 114.219 54.9057C113.023 54.832 111.827 54.759 110.632 54.686C108.168 54.5356 105.704 54.3852 103.241 54.2286C99.2335 53.974 95.2261 53.7145 91.2187 53.455L91.2185 53.455C89.7125 53.3574 88.2065 53.2599 86.7005 53.1626C86.4627 53.1473 86.2426 53.1333 86.036 53.1202C83.4338 52.9549 82.9852 52.9265 76.5 52Z" fill="#FFEAC4"/>
</svg>
